<svg xmlns="http://www.w3.org/2000/svg" viewBox="0 0 50 50"><g data-name="レイヤー 2"><g data-name="レイヤー 1"><path d="M19.1 25a6.15 6.15 0 116.15 6.15A6.15 6.15 0 0119.1 25m-3.32 0a9.47 9.47 0 109.47-9.47A9.47 9.47 0 0015.78 25m17.1-9.85a2.22 2.22 0 102.22-2.21 2.23 2.23 0 00-2.22 2.21M17.8 40a10.48 10.48 0 01-3.43-.64A5.57 5.57 0 0112.25 38a5.57 5.57 0 01-1.38-2.12 10.21 10.21 0 01-.64-3.43c-.09-1.94-.11-2.52-.11-7.45s0-5.51.11-7.46a10.2 10.2 0 01.64-3.42A5.57 5.57 0 0112.25 12a5.57 5.57 0 012.12-1.38A10.48 10.48 0 0117.8 10c1.94-.09 2.52-.1 7.45-.1s5.51 0 7.45.1a10.48 10.48 0 013.43.64A5.57 5.57 0 0138.25 12a5.57 5.57 0 011.38 2.12 10.47 10.47 0 01.64 3.42c.09 1.95.1 2.53.1 7.46s0 5.51-.1 7.45a10.48 10.48 0 01-.64 3.43 6.11 6.11 0 01-3.5 3.5 10.48 10.48 0 01-3.43.62c-1.94.09-2.52.1-7.45.1s-5.51 0-7.45-.1m-.16-33.34a13.39 13.39 0 00-4.47.86A8.88 8.88 0 009.9 9.65a8.88 8.88 0 00-2.13 3.27 13.39 13.39 0 00-.86 4.47c-.09 2-.11 2.6-.11 7.61s0 5.64.11 7.61a13.39 13.39 0 00.86 4.47 8.88 8.88 0 002.13 3.27 8.88 8.88 0 003.27 2.13 13.39 13.39 0 004.47.86c2 .09 2.6.11 7.61.11s5.64 0 7.61-.11a13.39 13.39 0 004.47-.86 9.45 9.45 0 005.4-5.4 13.39 13.39 0 00.86-4.47c.09-2 .11-2.6.11-7.61s0-5.64-.11-7.61a13.39 13.39 0 00-.86-4.47 8.88 8.88 0 00-2.13-3.27 8.88 8.88 0 00-3.27-2.13 13.39 13.39 0 00-4.47-.86c-2-.09-2.6-.11-7.61-.11s-5.64 0-7.61.11" fill="#9b98ba"/><path fill="none" d="M0 0h50v50H0z"/></g></g></svg>