<svg xmlns="http://www.w3.org/2000/svg" viewBox="0 0 50 50"><g data-name="レイヤー 2"><g data-name="レイヤー 1"><path d="M44.43 13a16 16 0 01-4.58 1.25 8 8 0 003.51-4.41 15.92 15.92 0 01-5.06 1.94 8 8 0 00-13.8 5.45 7.75 7.75 0 00.21 1.77 22.66 22.66 0 01-16.44-8.33 8 8 0 002.47 10.64 8 8 0 01-3.61-1v.1a8 8 0 006.4 7.81 7.73 7.73 0 01-2.11.29 8.09 8.09 0 01-1.49-.15 8 8 0 007.44 5.54 16 16 0 01-9.9 3.41 17 17 0 01-1.9-.11 22.59 22.59 0 0012.22 3.58c14.67 0 22.69-12.15 22.69-22.68v-1a16.08 16.08 0 003.95-4.1z" fill="#2fa5de"/><path fill="none" d="M0 0h50v50H0z"/></g></g></svg>