<svg xmlns="http://www.w3.org/2000/svg" width="18.59" height="19.128"><path data-name="パス 43" d="M13.383 7.49a4.869 4.869 0 01.492 2.142.731.731 0 00.73.731.731.731 0 00.731-.73 6.388 6.388 0 00-3-5.413 6.4 6.4 0 00-3.3-.968.731.731 0 00-.019 1.462 4.895 4.895 0 014.366 2.776z" fill="#fff"/><path data-name="パス 44" d="M17.629 5.436A9.631 9.631 0 009.036-.001h-.007a.731.731 0 00-.006 1.462 8.177 8.177 0 018.108 8.17.731.731 0 00.73.731.731.731 0 00.731-.73 9.541 9.541 0 00-.963-4.196z" fill="#fff"/><path data-name="パス 45" d="M15.163 13.016a1.373 1.373 0 00-1.781-.2l-1.552 1c-.313-.131-1.367-.719-3.729-3.25-2.376-2.547-2.88-3.629-2.985-3.943l1.1-1.481a1.381 1.381 0 00-.072-1.791L3.723.756a1.427 1.427 0 00-2.15.073l-.675.83a3.9 3.9 0 00-.9 2.63 7.933 7.933 0 00.739 3.046 23 23 0 004.262 6.123 26.562 26.562 0 004.457 3.877 8.909 8.909 0 004.724 1.792 3.669 3.669 0 002.31-.765l.87-.613a1.427 1.427 0 00.222-2.14z" fill="#fff"/></svg>