<svg xmlns="http://www.w3.org/2000/svg" viewBox="0 0 50 50"><defs><radialGradient id="radial-gradient" cx="24.85" cy="27.39" fx="-1.637" r="63.1" gradientTransform="rotate(-49.2 30.477 24.812) scale(1 .81)" gradientUnits="userSpaceOnUse"><stop offset="0" stop-color="#eee43d"/><stop offset=".06" stop-color="#ecd043"/><stop offset=".18" stop-color="#e79c53"/><stop offset=".35" stop-color="#df4a6c"/><stop offset=".4" stop-color="#dc2f74"/><stop offset=".48" stop-color="#ba347c"/><stop offset=".67" stop-color="#773f8b"/><stop offset=".82" stop-color="#464696"/><stop offset=".93" stop-color="#284b9c"/><stop offset="1" stop-color="#1d4d9f"/></radialGradient><clipPath id="clip-path"><path id="SVGID" class="cls-1" d="M19.05 25.63a6.15 6.15 0 116.15 6.15 6.15 6.15 0 01-6.15-6.15m-3.32 0a9.47 9.47 0 109.47-9.47 9.47 9.47 0 00-9.47 9.47m17.1-9.84a2.22 2.22 0 102.22-2.22 2.22 2.22 0 00-2.22 2.22M17.75 40.65a10.28 10.28 0 01-3.43-.65 5.71 5.71 0 01-2.12-1.39 5.49 5.49 0 01-1.38-2.12 10.4 10.4 0 01-.64-3.42c-.09-2-.1-2.53-.1-7.46s0-5.51.1-7.45a10.48 10.48 0 01.64-3.43 5.64 5.64 0 011.38-2.12 5.81 5.81 0 012.12-1.38 10.28 10.28 0 013.43-.63c1.94-.09 2.52-.11 7.45-.11s5.51 0 7.46.11a10.27 10.27 0 013.42.63 5.81 5.81 0 012.12 1.38 5.64 5.64 0 011.38 2.12 10.21 10.21 0 01.64 3.43c.09 1.94.1 2.53.1 7.45s0 5.51-.1 7.46a10.14 10.14 0 01-.64 3.42 5.49 5.49 0 01-1.38 2.12A5.71 5.71 0 0136.08 40a10.27 10.27 0 01-3.42.63c-1.95.09-2.53.11-7.46.11s-5.51 0-7.45-.11M17.59 7.3a13.42 13.42 0 00-4.47.85 9.45 9.45 0 00-5.4 5.4A13.4 13.4 0 006.86 18c-.09 2-.11 2.59-.11 7.6s0 5.64.11 7.61a13.51 13.51 0 00.86 4.48 9.39 9.39 0 005.4 5.39 13.39 13.39 0 004.47.86c2 .09 2.6.11 7.61.11s5.64 0 7.61-.11a13.51 13.51 0 004.48-.86 9.41 9.41 0 005.39-5.39 13.51 13.51 0 00.86-4.48c.09-2 .11-2.6.11-7.61s0-5.64-.11-7.6a13.4 13.4 0 00-.86-4.48 9.47 9.47 0 00-5.39-5.4 13.54 13.54 0 00-4.48-.85c-2-.09-2.6-.12-7.61-.12s-5.64 0-7.61.12"/></clipPath><style>.cls-1{fill:none}</style></defs><g id="レイヤー_2" data-name="レイヤー 2"><g id="レイヤー_1-2" data-name="レイヤー 1"><path class="cls-1" d="M0 0h50v50H0z"/><g clip-path="url(#clip-path)"><path d="M47.52 25.63A22.32 22.32 0 1125.2 3.31a22.32 22.32 0 0122.32 22.32z" fill="url(#radial-gradient)"/></g></g></g></svg>