<svg xmlns="http://www.w3.org/2000/svg" viewBox="0 0 50 50"><g data-name="レイヤー 2"><g data-name="レイヤー 1"><path d="M18.85 25A6.15 6.15 0 1125 31.15 6.15 6.15 0 0118.85 25m-3.32 0A9.47 9.47 0 1025 15.53 9.47 9.47 0 0015.53 25m17.1-9.85a2.22 2.22 0 102.22-2.21 2.23 2.23 0 00-2.22 2.21M17.55 40a10.48 10.48 0 01-3.43-.64A5.57 5.57 0 0112 38a5.57 5.57 0 01-1.38-2.12 10.48 10.48 0 01-.62-3.43c-.09-1.94-.1-2.52-.1-7.45s0-5.51.1-7.46a10.47 10.47 0 01.64-3.42A5.57 5.57 0 0112 12a5.57 5.57 0 012.12-1.38 10.48 10.48 0 013.43-.62c1.94-.09 2.52-.1 7.45-.1s5.51 0 7.46.1a10.47 10.47 0 013.42.64A5.57 5.57 0 0138 12a5.57 5.57 0 011.38 2.12 10.2 10.2 0 01.62 3.42c.09 1.95.1 2.53.1 7.46s0 5.51-.1 7.45a10.21 10.21 0 01-.64 3.43 6.11 6.11 0 01-3.5 3.5 10.47 10.47 0 01-3.42.64c-1.95.09-2.53.1-7.46.1s-5.51 0-7.45-.1m-.14-33.36a13.39 13.39 0 00-4.47.86 8.88 8.88 0 00-3.27 2.13 8.88 8.88 0 00-2.13 3.27 13.39 13.39 0 00-.86 4.47c-.09 2-.11 2.6-.11 7.61s0 5.64.11 7.61a13.39 13.39 0 00.86 4.47 8.88 8.88 0 002.13 3.27 8.88 8.88 0 003.27 2.13 13.39 13.39 0 004.47.86c2 .09 2.6.11 7.61.11s5.64 0 7.61-.11a13.51 13.51 0 004.48-.86 9.47 9.47 0 005.39-5.4 13.39 13.39 0 00.86-4.47c.09-2 .11-2.6.11-7.61s0-5.64-.11-7.61a13.39 13.39 0 00-.86-4.47 9.47 9.47 0 00-5.39-5.4 13.51 13.51 0 00-4.48-.86c-2-.09-2.6-.11-7.61-.11s-5.64 0-7.61.11" fill="#787878"/><path fill="none" d="M0 0h50v50H0z"/></g></g></svg>