<svg xmlns="http://www.w3.org/2000/svg" width="12.143" height="17"><path data-name="パス 6" d="M6.071 0A6.078 6.078 0 000 6.072c0 3.23 5.515 10.464 5.75 10.77a.405.405 0 00.643 0c.235-.306 5.75-7.54 5.75-10.77A6.078 6.078 0 006.071 0zm0 15.92C4.883 14.311.809 8.61.809 6.072a5.262 5.262 0 1110.524 0c0 2.538-4.073 8.239-5.262 9.848z"/><path data-name="パス 7" d="M6.071 3.238a2.833 2.833 0 102.833 2.833 2.837 2.837 0 00-2.833-2.833zm0 4.857a2.024 2.024 0 112.024-2.024 2.026 2.026 0 01-2.024 2.024z"/></svg>