<svg xmlns="http://www.w3.org/2000/svg" viewBox="0 0 50 50"><g data-name="レイヤー 2"><g data-name="レイヤー 1"><path d="M25.05 37.79c-3.91 0-7.82 0-11.72-.24a8.4 8.4 0 01-3.68-.81 3.78 3.78 0 01-1.74-1.81 12.43 12.43 0 01-1-4.27 72.44 72.44 0 01-.13-9.08 25.07 25.07 0 01.5-4.8A8.68 8.68 0 018 15a4.35 4.35 0 013.27-2.29 24.17 24.17 0 013.61-.27c4.1-.17 8.21-.26 12.31-.22 3.16 0 6.33.12 9.49.28a9.76 9.76 0 012.89.41 4.32 4.32 0 012.7 2.55 13.07 13.07 0 01.73 3.81 73.22 73.22 0 010 10.68 18.88 18.88 0 01-.47 3.59 4.82 4.82 0 01-4.89 3.94q-4 .27-8 .31c-1.46.02-3.03 0-4.59 0zm-3.85-7.5l10.62-5.81-10.62-5.82z" fill="#cf2f28"/><path d="M21.2 30.29V18.67l10.62 5.82z" fill="#fffdfd"/><path fill="none" d="M0 0h50v50H0z"/></g></g></svg>