<svg xmlns="http://www.w3.org/2000/svg" viewBox="0 0 163.8 122.46"><defs><style>.cls-1{fill:#231815}.cls-3{letter-spacing:.55em}</style></defs><g id="レイヤー_2" data-name="レイヤー 2"><g id="レイヤー_1-2" data-name="レイヤー 1"><path class="cls-1" d="M7.9 24.81a3.93 3.93 0 01.18-.81 4.74 4.74 0 01.16-.65 1.08 1.08 0 01.32-.49 2.77 2.77 0 00.44-.62c.14-.23.32-.45.45-.68a1.73 1.73 0 00.16-.74.61.61 0 000-.24v-.14c0-.06.11-.26.13-.38s.21-.63 0-.65a2 2 0 010-.35 1.93 1.93 0 00.06-.42 1.6 1.6 0 00-.36-.74 8.87 8.87 0 00-1.14-1.51c-.12-.1-.26-.2-.39-.29a1.72 1.72 0 01-.43-.46c-.11-.13-.07-.15 0-.29s.07-.28.12-.43a1.32 1.32 0 01.1-.3 2.45 2.45 0 01.24-.38.82.82 0 01.61-.43 1.51 1.51 0 01.6 0 1.86 1.86 0 01.74.21c0 .12.2.27.28.33a2.2 2.2 0 01.33.36c.14.18.18.41.3.59a2.38 2.38 0 00.31.4 3.44 3.44 0 00.47.54 1.76 1.76 0 01.27.33 4 4 0 00.7.9 2.65 2.65 0 00.73.55c.09 0 .19.07.28.12s.42.11.62.2a6.88 6.88 0 01.67.54 4.94 4.94 0 01.42.27 4.59 4.59 0 01.37.39c.13.14.29.23.42.38s.15.29.25.43a4.93 4.93 0 00.7.74c.2.17.73.51.7.81 0 .12-.12.25-.14.36a1.92 1.92 0 01-.11.54c-.14.27-.23.56-.37.81a1 1 0 01-.27.28 2.25 2.25 0 00-.36.39.46.46 0 01-.26.18 2.62 2.62 0 01-.53.2 2.27 2.27 0 01-.5.12 4 4 0 01-.44-.11h-.61a3 3 0 00-.53-.05 7.43 7.43 0 00-.93.13c-.66.07-1.35 0-2 .09h-.75A7.19 7.19 0 009 25a5.68 5.68 0 00-.61.07c-.17.06-.42.14-.52 0z"/><path class="cls-1" d="M74.05 67.85a18.79 18.79 0 01-.84-1.85 5 5 0 01-.74-1.87 1.36 1.36 0 00-1.67 1.47c.06.71.19 1.49.19 2.29a6.35 6.35 0 01-.43 2c-.34 1.32-.18 2.88-.5 4.19a9.62 9.62 0 01-1.71 4.14C67.67 79.07 66 81 65 81.07c-.54.05-1-.06-1.51 0s-.88.2-1.32.25a25.12 25.12 0 01-3 .18 41.35 41.35 0 01-4.89-.18c-1.52-.22-3.28-1.32-4.61-1.9a17.86 17.86 0 00-4.47-1.37c-1.57-.13-2.42-1.09-3.77-1.84a18.81 18.81 0 00-2.26-1c-.43-.16-1.39-.42-1.65-.78s-.27-.75-.47-1.06-.38-.62-.57-.94c-.3-.54-.6-1.17-.93-1.69a21.15 21.15 0 01-1.88-4 11.33 11.33 0 01-.67-2.23 15.21 15.21 0 00-.23-2.08 18.27 18.27 0 01-.51-4.52 11.17 11.17 0 011.26-4.19c.55-1.33 1.37-3.08 2.88-3.53v1.51a1.06 1.06 0 01.53 0c-.08 1 1.83 2 2.48 2.64s.79 1.18 1.36 1.61 1.24.58 1.79 1 1 1.24 1.57 1.62a4.72 4.72 0 002.06.41 13.58 13.58 0 012.21.8 3.8 3.8 0 002 0c1.56-.37 2.9.32 4.46.4.85 0 1.48-.72 2.12-1.19s1.34-.54 1.79-1.1.47-.94 1-1.32c.35-.25.59-.22.89-.63.5-.67.72-1.63 1.13-2.28A11.7 11.7 0 0163.27 52c.37-.37 1.06-.91 1.17-1.43l.3-.07a8.83 8.83 0 011.17-2.18c.43-.64.88-1.4 1.28-2.12.73-1.35 1.89-2.15 2.63-3.57a21.61 21.61 0 011.31-1.92c.42-.6.54-1.3.94-1.89A5 5 0 0175.86 37c.21-.57-.27-1-.36-1.48a5.2 5.2 0 01.2-1.52 12.47 12.47 0 01.42-2.83c.37-1 .55-2.13.85-3.2a5.59 5.59 0 00.25-2.82 1.64 1.64 0 00-.76-1.15c-.79-.46-.83-.15-.95-1.13s-.79-1.91-1-3c-.35-2.35-2.66-4.24-4.32-5.84A43.13 43.13 0 0066 10.42 13.17 13.17 0 0164.18 9a3.32 3.32 0 00-1.83-1.1 28.44 28.44 0 00-3.44.1c-1 .12-1.89.09-2.79.21-.54.08-1.15-.12-1.69 0s-.71.36-1.09.43c-.57.09-.88-.2-1.4-.57a23.79 23.79 0 01-3.73-3.44 5.79 5.79 0 00-1.21-.8c-.25-.18-.53-.58-.67-.67-.76-.47-1.92-.24-2.79-.24-.5 0-.73.17-1.29 0-.36-.14-.62-.23-1-.34a13 13 0 01-2-1c-1-.51-1.16-.61-2.15 0-.68.4-1.4 1.11-2.21 1a3.94 3.94 0 00.58 1.81c.43.54.86 1 1.23 1.6s.87.87.77 1.41c0 .21-.59.66-.68 1a4.77 4.77 0 000 1.31c0 .58-.39 1.15-.39 1.72 0 .21.2.44.2.73a1.52 1.52 0 01-.15.61 22.34 22.34 0 00-1 3c-.1.72 0 1-.58 1.55a15.18 15.18 0 00-1.13 1.14 2.88 2.88 0 00-.74 1.27c-.11.56-.11 1.1-.24 1.66a7.21 7.21 0 000 1.73 3 3 0 01-.56 1.46c-.53.89-1.26 2.56-2.18 2.88a9.39 9.39 0 01-3.25.18c-.91 0-2-.2-3-.26 0-.1 0-.21-.07-.31a4.94 4.94 0 00-5.66 2c-.69.95-.56 2.3-.7 3.44a27.41 27.41 0 00-.38 3.4c0 1.09-.16 2.23-.19 3.38a15.54 15.54 0 01-.37 1.9c-.05.51-.16 1.09-.19 1.68a14.61 14.61 0 01-.53 2.07 5.33 5.33 0 00.15 1.69 14 14 0 010 3.36 2.74 2.74 0 01-1.63.19c0-1.49-1.07-2.36-1.69-3.55a6.21 6.21 0 01-.61-1.87 14.78 14.78 0 00.1-2.07 2.73 2.73 0 01-1.5-1.49c-.33-.75-.14-1.45-1.24-1a6.82 6.82 0 00-.59-2 2.56 2.56 0 01-.24-1.51c.06-.38.15-.78.19-1.12a3.18 3.18 0 00-.29-2.45A4.87 4.87 0 017.7 31a2.23 2.23 0 01-.88-.18 5.36 5.36 0 00-1.31 2.49 6.08 6.08 0 01-.8 1.82 6 6 0 00-.93 1.32 24.75 24.75 0 00-1.13 3.95c-.16.64-.4 1.31-.53 1.93a14.12 14.12 0 01-.75 1.92 21.33 21.33 0 00-1.18 4.62 6.47 6.47 0 000 1.32 4.27 4.27 0 010 1.13C.11 52.14 0 53 0 53.77a16.41 16.41 0 00.21 2.64 17.18 17.18 0 00.12 2.27c.2.81 0 1.55.19 2.39s.33 1.48.42 2.3a14.2 14.2 0 00.79 2.82 7.52 7.52 0 01.55 1.14 4.83 4.83 0 00.12 1.13c.1.28.39.23.45.55 0 .16-.08.41-.06.54s-.18.21-.12.41.33.17.41.32c.28.59 0 1.54.28 1.89-.42.43.25 2.31.41 2.87.25.88.7 1.63.94 2.45a6.06 6.06 0 00.93 1.93A18 18 0 017.4 82c.38.72.74 1.81 1.46 2.27s1.8.72 2.64 1.26a11 11 0 001.91 1 10.94 10.94 0 011.85 1 2.94 2.94 0 002.26.09c.81-.18 1.36-1 2.1-1.24a8 8 0 011.85.15c.76 0 1.49.08 2.22.15s1.42.34 2.07 0a4.73 4.73 0 001.55-1.28 5.77 5.77 0 00.94-1.49c.26-.81-.21-1.81-.38-2.65a8.44 8.44 0 010-4.7 2.14 2.14 0 011.18-1.29c.8-.21 1.43.55 1.87 1.09a18.24 18.24 0 003.63 3.16c1.31.86 2.69 1.56 4 2.34a31.75 31.75 0 004 2.45c1.49.63 3 1.12 4.48 1.7a4 4 0 001.92.52c.87 0 1.78.09 2.65 0a4.27 4.27 0 011.13 0c.35 0 .66.06 1 .13a7.35 7.35 0 002.22.43c.88 0 1.67-.19 2.59-.19a17.65 17.65 0 002.3 0 4.93 4.93 0 012.41-.14 2.66 2.66 0 001.88-.1c.75-.3 1.35-.9 2.12-1.23.62-.27 1.23-.26 1.87-.55a14.28 14.28 0 003.35-2.55 7.52 7.52 0 011.93-1.5 8.73 8.73 0 001.82-.83c.57-.56.38-1.58.56-2.27a9.18 9.18 0 00.35-2.21c0-1.49.23-2.93-.53-4.34-.6-1.24-1.86-2.18-2.55-3.33M51 37.39c0-1.75.19-3.31.19-5.08a22.74 22.74 0 00-.14-2.64c-.09-.66 0-1.71.51-2.07l.57-1.14c1.09-1.95 3.42-2.57 4.9-4.12 1-1.11 3.81-4.14 5.27-2.08a2.51 2.51 0 01.15 3 21.71 21.71 0 00-1 3.1c-.22.76-.1.65.19 1.46s-.05.86-.2 1.5a8.87 8.87 0 000 1.93c0 .49.3 1.22.16 1.62a3.63 3.63 0 00-1.84.55c-.89.52-.35.73-.43 1.55a10 10 0 01-1.42 3.82c-.62 1-1.09 2.52-2 3.34s-2.34 1.36-2.83 2.59c-.58.31-1.34.66-1.8 0s0-1.86 0-2.59c0-.22-.23-.36-.23-.58s.23-.28.22-.56a6.61 6.61 0 00-.2-1.12 14.32 14.32 0 010-2.45m110.04 16.72a34.41 34.41 0 000-4.76c-.19-1.5.15-3.07 0-4.56-.1-.75-.39-1.44-.55-2.16a19 19 0 01-.32-2.23c-.08-.68-.31-1.37-.38-2a12.07 12.07 0 01.2-2.56c.1-1.14-.88-1.61-1.65-2.23-1.2-1-2.1-.38-3.45-.73-.22-.83-1.71-2.52-2.59-2.53-1.48 0-2.72 1.21-4 1.66a10.75 10.75 0 01-2 .54 8.44 8.44 0 01-2 .16c-.15 0-.38-.43-.53-.52a5.54 5.54 0 00-1.13-.37c-.62-.2-1-.5-1.63-.19a7.22 7.22 0 00-1.54 1.34 6.56 6.56 0 01-1.65 1c-1.26.59-2.59.42-4 .58a36.71 36.71 0 01-4.06 0 12.92 12.92 0 01-1.83.19c-.4 0-1.61-.4-1.47.18l.37.73a.48.48 0 00-.55-.07 29.35 29.35 0 011.87 3.55 7 7 0 01.69 4 42.37 42.37 0 01-.72 4.76c-.35 1.46-1.1 2.79-1.25 4.34s-.71 3.1-1 4.61a30.09 30.09 0 01-1.46 4.58 30.17 30.17 0 01-2.7 4.57 10.42 10.42 0 01-1 1.65 5.23 5.23 0 00-1.23 1.6 2.68 2.68 0 00.26 2.22c.5-.09.93-.27 1.43-.35.71-.12.64 0 1.05-.6a2.56 2.56 0 012-1.41c1.26-.14 2.18-.6 2.76.73.47 1.1 1.15 2.06 1.66 3.1 1 2 2.84 4.57 2.54 7a11.37 11.37 0 000 4c.13.51.19 1 .33 1.51a11.39 11.39 0 01.59 1.5 9.61 9.61 0 002 .87 8.69 8.69 0 00.77.46c.19.09.39 0 .56 0s.32.35.4.35c1.11 0 2.5-1.33 3.62-1.75a19.23 19.23 0 014.21-1 16.17 16.17 0 002.19-.18 11 11 0 002.38-.54c.5-.26.73-1 1.13-1.41.25-.25.45-.54.69-.78a8.83 8.83 0 01.92-.69c.46-.36.82-1 1.27-1.38a16.2 16.2 0 001.89-1.55 39.69 39.69 0 002.28-3.55 29.25 29.25 0 002.42-4 28.17 28.17 0 002.33-8.45 44.76 44.76 0 00.23-4.9c0-1.49-.36-2.85-.36-4.39m-5.53-6a47.8 47.8 0 00-.32 5.09 18.75 18.75 0 000 2.37 1.9 1.9 0 01-.41 1.78 38.08 38.08 0 00-2 4.63c-.65 1.49-.87 3.11-1.55 4.56a30.13 30.13 0 01-2.57 4.07c-.77 1.12-.82 2.51-1.55 3.57-.45.66-1.08 1.19-1.47 1.87s-.58 1.36-1.26 1.79a10.32 10.32 0 01-2.53 1 4.58 4.58 0 01-2 .34 2.15 2.15 0 00-.8-1.43 10.93 10.93 0 01-1.28-2 11.27 11.27 0 01-1.27-3.67c-.14 0-.36-.08-.49-.06-.26-.55-.28-1.1-.54-1.66s-.64-1.06-.27-1.61.92-.37 1.39-.86a11.68 11.68 0 001-1.35 21.3 21.3 0 001-2.17c.37-.75 1-1.31 1.39-2a18.19 18.19 0 001.67-3.65c.37-1.32.41-2.67.78-4s.87-2.85 1.25-4.25a59.27 59.27 0 001.19-6.19 8.42 8.42 0 011.07-3.4 10 10 0 012.85-2.59c.76-.52 1.58-.49 2.34-1 .58-.36 1.19-1 1.95-.65.46.24.29.73.29 1.2a7.58 7.58 0 00.4 2.59 5.37 5.37 0 01.52 1.28 5.7 5.7 0 000 1.24c.25.83.87 1.53 1.06 2.41a8.62 8.62 0 01.14 2.78"/><path class="cls-1" d="M163.08 3.17c-1.31-.63-3-.27-4.34 0s-2.29-.92-3.57-1.45a2.45 2.45 0 00-1.89-.23 4.09 4.09 0 00-2.1.89c-.42.47-.47 1.5-.94 1.9-.15.14-.7.15-.91.22a4.16 4.16 0 00-.94.51 20.88 20.88 0 01-1.92 1c-.62.37-1.17.9-1.85 1.28a9.84 9.84 0 00-1.74 1.12c-.52.42-.94 1-1.49 1.32a7.83 7.83 0 00-1.62 1.16c-.36.4-.61 1-.93 1.38-.81 1-2 1.18-3 1.8.77-.45.87-2.27.68-3-.3-1.15.65-1.7.92-2.83.33-1.43-.28-2.22-1.05-3.25a3.53 3.53 0 01-.62-1.26c-.12-.6.06-1.4-.55-1.76s-.51.08-.95.07-.59-.21-1-.21c-.58 0-1.11.45-1.69.59h-.75a7.37 7.37 0 01-.94 0 21.12 21.12 0 01-2.07-.57 10.68 10.68 0 01-1.7-.53 7 7 0 01-1.32-.75 4.54 4.54 0 00-1.5-.6c-.68-.1-1.11.24-1.86.21a18.56 18.56 0 00.17 4.49 5.54 5.54 0 01-1 4.13c-.65-.64-.85.55-.89 1a11.11 11.11 0 01-.2 2.45c-.2.72-.55 1.37-.73 2.08a5.65 5.65 0 01-.81 2c-.31.41-.79.71-1.13 1.11s-.66 1.21-1.08 1.74-1 1-1.36 1.47a11.19 11.19 0 00-.95 1.74 4.09 4.09 0 00-.69 2.07 19.54 19.54 0 01-.57 2.54 16.49 16.49 0 01-.53 2.07c-.28.72-.89 1.32-1.13 2.06-.12.33-.1.79-.19 1.14a2.06 2.06 0 01-.52 1 7.15 7.15 0 00-.84 2.17c-.19.67-.18 1.39-.32 2.11s-1 1.26-1.33 2.07-.32 1.67-.61 2.41-.74 1.33-1 2.11-.09 1.83-.4 2.64a3.2 3.2 0 01-.43.89c-.39.34-.88.1-1.24.55-.28-1.19-1.41-1.67-1.74-2.76a9.4 9.4 0 01.2-3.77c.16-.51.64-.64 1-1.12a6.27 6.27 0 00.86-1.51 12.38 12.38 0 01.41-1.7c.21-.44.57-.88.8-1.32a9.3 9.3 0 012.07-2.77c.59-.52.57-.41.66-1.14.06-.43 0-1.18 0-1.73.1-1.11.18-2.21.19-3.39 0-1.41-.51-1.16-1.51-1.64a1.27 1.27 0 01-.76-.11c-.32.09 0 .24-.37.14.06.05-.2-.17-.19-.09v.19a3.52 3.52 0 01-1.13-1.88 9.45 9.45 0 01-.75-2.27c-.1-.8-.59-4.33-2.08-2.82-.63.62-.31 1.63-.4 2.45-.15 1.11-.42 2.25-.67 3.35a24.12 24.12 0 01-2 5.13c-.38.54-.84 1.54-1.25 2.19a25.26 25.26 0 01-1.65 1.92 6.9 6.9 0 01-3 2.75c-.87.34-1.77.6-2.65.94a1.21 1.21 0 01-1 .05c-.13 0-.25-.29-.38-.35s-.47 0-.71 0c-.79-.15-1.06.09-1.83.41-.61.26-1.45.62-2.09.18.34.51.51 1.19.85 1.71a8.91 8.91 0 001.37 1.51A2.85 2.85 0 0187 42.38c.12.83 0 1.6.22 2.41.05.26.26.68.33 1a8 8 0 00.45 1.3c.33.73.81 1.3 1.15 2 .55 1.26 1.79 2.07 2.23 3.41.39.07.55-.23.9-.32a10.89 10.89 0 011.14 0c.85-.11 1.68-.18 2.57-.21a10.52 10.52 0 00.3 1.88c.12.83.63 1.63.71 2.46.2 1.63-.22 3.15 0 4.74s.46 3.39.75 5c.35 1.9 1.57 3.2 2.41 4.9.78 1.55 1.39 3.29 3.11 3.8a7.29 7.29 0 012 .85 7.29 7.29 0 002.2 1.42 1.88 1.88 0 001.78-.93c.56-.79.43-1.16.34-2.13a6.75 6.75 0 011.32-5.09c.5-.54.87-.82.75-1.7a17.48 17.48 0 01-.19-2.25 20 20 0 010-2.45c.09-.78.44-1.51.53-2.3.34-3.12-1.08-6.69 1.22-9.18a30.7 30.7 0 003-4.7 30.9 30.9 0 013-3.44 27.81 27.81 0 013.06-3.49 26.31 26.31 0 003.35-3.25 33.41 33.41 0 013.57-3.76c1.47-1.28 2.66-2.93 4.14-4.19.64-.55 1.5-.91 2.08-1.5s1.19-1.37 1.87-2a46.4 46.4 0 014.2-3.19 29.87 29.87 0 003.33-2.92 28.71 28.71 0 013.91-2.55c2.55-1.77 4.63-3.48 7.42-4.62a10.94 10.94 0 013.5-.64c.09-.64 1.28-1 1.74-1.33a7.63 7.63 0 001.74-2c.49-1 1.25-3.57 0-4.19M117.4 25.61a11.81 11.81 0 01.37-2.56 8.62 8.62 0 01.5-2.23c.38-.75.61-1.58 1-2.3l.3-.07c0-.27.15-.22.21-.33h.22c.47.7 0 1.92-.14 2.59a15.41 15.41 0 00-.59 2.34 7.47 7.47 0 01-.77 2.57 3.29 3.29 0 00-.55 1.09c-.09.35-.08 1.09-.29 1.27a10.52 10.52 0 00-.22-1.09 9.11 9.11 0 010-1.28m9.18-1.46a7.2 7.2 0 01-1.27 1.14c-.39.33-.6.87-1 1.2s-.86.39-1.24.74a5.19 5.19 0 00-.91 1.13 6.83 6.83 0 01-.91 1.28c-.35.31-.91.47-1.29.77s-.53.57-1 .73c-.32.1-1 .14-1 .32h-.37c-.13-.79.67-1.6 1.06-2.18a7 7 0 00.78-2 12.54 12.54 0 011-2.16 8.61 8.61 0 00.69-2.06 11 11 0 011.28-2.56 13.73 13.73 0 00.91-2.51 9.28 9.28 0 011.33-2.23 8.06 8.06 0 011.75-2.33c.07 1.5.77 2.93.54 4.48-.47.15-.67.67-1.21.79a4 4 0 01-.4 1.62c-.24.43-.5.82-.71 1.26.48 0 1-.67 1.4-.94s.72-.5 1.1-.73c.66-.4 2.12-1 2.76-.29 1.29 1.53-2.52 3.64-3.23 4.54"/><text transform="translate(12.23 117.63)" font-size="17" font-family="RyuminPro-Bold-90ms-RKSJ-H,A-OTF Ryumin Pro" letter-spacing=".55em" fill="#231815">I<tspan class="cls-3" x="15.67" y="0">K</tspan><tspan x="38.93" y="0">E</tspan><tspan class="cls-3" x="59.96" y="0">NO</tspan><tspan x="104.57" y="0">B</tspan><tspan x="125.59" y="0">O</tspan></text></g></g></svg>