<svg xmlns="http://www.w3.org/2000/svg" viewBox="0 0 50 50"><defs><style>.cls-1{fill:#cf2f28;}.cls-2{fill:#fffdfd;}.cls-3{fill:none;}</style></defs><g id="レイヤー_2" data-name="レイヤー 2"><g id="レイヤー_1-2" data-name="レイヤー 1"><path class="cls-1" d="M25.05,37.79c-3.91,0-7.82,0-11.72-.24a8.4,8.4,0,0,1-3.68-.81,3.78,3.78,0,0,1-1.74-1.81,12.43,12.43,0,0,1-1-4.27,72.44,72.44,0,0,1-.13-9.08,25.07,25.07,0,0,1,.5-4.8A8.68,8.68,0,0,1,8,15a4.35,4.35,0,0,1,3.27-2.29,24.17,24.17,0,0,1,3.61-.27c4.1-.17,8.21-.26,12.31-.22,3.16,0,6.33.12,9.49.28a9.76,9.76,0,0,1,2.89.41,4.32,4.32,0,0,1,2.7,2.55A13.07,13.07,0,0,1,43,19.27a73.22,73.22,0,0,1,0,10.68,18.88,18.88,0,0,1-.47,3.59,4.82,4.82,0,0,1-4.89,3.94q-4,.27-8,.31C28.18,37.81,26.61,37.79,25.05,37.79Zm-3.85-7.5,10.62-5.81L21.2,18.66Z"/><path class="cls-2" d="M21.2,30.29V18.67l10.62,5.82Z"/><rect class="cls-3" width="50" height="50"/></g></g></svg>