<svg xmlns="http://www.w3.org/2000/svg" viewBox="0 0 50 50"><defs><style>.cls-1{fill:#787878;}.cls-2{fill:none;}</style></defs><g id="レイヤー_2" data-name="レイヤー 2"><g id="レイヤー_1-2" data-name="レイヤー 1"><path id="SVGID" class="cls-1" d="M18.85,25A6.15,6.15,0,1,1,25,31.15,6.15,6.15,0,0,1,18.85,25m-3.32,0A9.47,9.47,0,1,0,25,15.53,9.47,9.47,0,0,0,15.53,25m17.1-9.85a2.22,2.22,0,1,0,2.22-2.21,2.23,2.23,0,0,0-2.22,2.21M17.55,40a10.48,10.48,0,0,1-3.43-.64A5.57,5.57,0,0,1,12,38a5.57,5.57,0,0,1-1.38-2.12A10.48,10.48,0,0,1,10,32.45c-.09-1.94-.1-2.52-.1-7.45s0-5.51.1-7.46a10.47,10.47,0,0,1,.64-3.42A5.57,5.57,0,0,1,12,12a5.57,5.57,0,0,1,2.12-1.38A10.48,10.48,0,0,1,17.55,10c1.94-.09,2.52-.1,7.45-.1s5.51,0,7.46.1a10.47,10.47,0,0,1,3.42.64A5.57,5.57,0,0,1,38,12a5.57,5.57,0,0,1,1.38,2.12A10.2,10.2,0,0,1,40,17.54c.09,1.95.1,2.53.1,7.46s0,5.51-.1,7.45a10.21,10.21,0,0,1-.64,3.43,6.11,6.11,0,0,1-3.5,3.5,10.47,10.47,0,0,1-3.42.64c-1.95.09-2.53.1-7.46.1s-5.51,0-7.45-.1M17.39,6.66a13.39,13.39,0,0,0-4.47.86A8.88,8.88,0,0,0,9.65,9.65a8.88,8.88,0,0,0-2.13,3.27,13.39,13.39,0,0,0-.86,4.47c-.09,2-.11,2.6-.11,7.61s0,5.64.11,7.61a13.39,13.39,0,0,0,.86,4.47,8.88,8.88,0,0,0,2.13,3.27,8.88,8.88,0,0,0,3.27,2.13,13.39,13.39,0,0,0,4.47.86c2,.09,2.6.11,7.61.11s5.64,0,7.61-.11a13.51,13.51,0,0,0,4.48-.86,9.47,9.47,0,0,0,5.39-5.4,13.39,13.39,0,0,0,.86-4.47c.09-2,.11-2.6.11-7.61s0-5.64-.11-7.61a13.39,13.39,0,0,0-.86-4.47,9.47,9.47,0,0,0-5.39-5.4,13.51,13.51,0,0,0-4.48-.86c-2-.09-2.6-.11-7.61-.11s-5.64,0-7.61.11"/><rect class="cls-2" width="50" height="50"/></g></g></svg>