<svg xmlns="http://www.w3.org/2000/svg" viewBox="0 0 50 50"><defs><style>.cls-1{fill:#9b98ba;}.cls-2{fill:none;}</style></defs><g id="レイヤー_2" data-name="レイヤー 2"><g id="レイヤー_1-2" data-name="レイヤー 1"><path class="cls-1" d="M44.43,13a16,16,0,0,1-4.58,1.25,8,8,0,0,0,3.51-4.41,15.92,15.92,0,0,1-5.06,1.94,8,8,0,0,0-13.8,5.45A7.75,7.75,0,0,0,24.71,19,22.66,22.66,0,0,1,8.27,10.67a8,8,0,0,0,2.47,10.64,8,8,0,0,1-3.61-1v.1a8,8,0,0,0,6.4,7.81,7.73,7.73,0,0,1-2.11.29,8.09,8.09,0,0,1-1.49-.15,8,8,0,0,0,7.44,5.54,16,16,0,0,1-9.9,3.41,17,17,0,0,1-1.9-.11,22.59,22.59,0,0,0,12.22,3.58c14.67,0,22.69-12.15,22.69-22.68,0-.35,0-.69,0-1A16.08,16.08,0,0,0,44.43,13Z"/><rect class="cls-2" width="50" height="50"/></g></g></svg>