<svg xmlns="http://www.w3.org/2000/svg" viewBox="0 0 290.98 57.59"><defs><style>.cls-1{fill:#fff;}</style></defs><g id="レイヤー_2" data-name="レイヤー 2"><g id="レイヤー_1-2" data-name="レイヤー 1"><path class="cls-1" d="M20.43,41s4.77,1.65,7.88-4.25S32.78,20.28,27.08,18,6.2,19.55.81,32.73c0,0-4.76,13.27,8.84,20.87s23.85,2.68,29.88-.75S57.26,39.16,60.17,16.12c0,0,.62-10.69-7.36-15.56,0,0-3.63-1.56-5.82.52s-2.38,4.56-1.64,5.6a16.51,16.51,0,0,0,2.9,3.22c1,.62,2.17,1.66,1,4.25a7.56,7.56,0,0,1-1.87,3.22c-1.24,1.05-2.39,4.26-1.88,5.91A43.77,43.77,0,0,0,49,29.4s4.27,3.43,1.57,8A22.91,22.91,0,0,1,38.9,48.92s-4,3.42-12.14,3.2S10.16,42.48,9.33,41.66s-6-6.85-5.09-9.46,3.43-4,10.48-6.83c0,0,7.37-2.4,6.64,1.85a29.08,29.08,0,0,1-2.17,5.4c-1.56,3-2.08,6.76,1.24,8.41"/><path class="cls-1" d="M72,41.56c0,2.67.47,5.45.23,8.1a6.12,6.12,0,0,1-5,5.39c-6.64,1.35-5.23-8.52-5.28-12.5a53.85,53.85,0,0,1,2.45-18.2c.88-2.57,1.52-6.19,4.27-7.25,2.4-.93,4.3,1,4.75,3.48.56,3-1.61,4.79-2.22,7.58-1.09,5.28,1.81,3.35,4.92,2.15a9.79,9.79,0,0,1,7.82.33c2.45,1,5.08,2.33,7.68.94s4.34-3.79,6.36-5.85c1.61-1.64,5.2-2.76,5.58-.13.38,2.48-2.58,5.41-4.31,6.76-1.91,1.48-4.3,1.79-6.27,3.1-5,3.35.55,8.35,2.57,11.47,1.21,1.84,2,4.42,0,6s-5.6,1.47-7.88.23a10.69,10.69,0,0,1-2.64-2.25c-1-.64-1.63-2.49-2-3.57A25.2,25.2,0,0,0,81.88,44a7.14,7.14,0,0,0-5.48-3.62,7.77,7.77,0,0,0-4,.22Z"/><path class="cls-1" d="M116.22,44.94c1.7,1.42,3.07,1.89,5,.59A22.09,22.09,0,0,0,126.54,41c2.92-4-1.73-7.93-5.26-9-4.72-1.5-8.39.32-12.4,2.74-3.25,1.95-7.16,4.62-8.71,8.23a8.7,8.7,0,0,0,0,7.15c1,2.08,3.22,3.16,5.16,4.22a13.14,13.14,0,0,0,7,1.63,28,28,0,0,0,8-.85,30.12,30.12,0,0,0,6.71-3c1.09-.66,4.45-3.61,1.94-4.67-1.86-.79-4.47,1.56-6.21,2a14.87,14.87,0,0,1-7.14-.14c-4.24-1.13-8.69-5.1-6.5-9.83A4.09,4.09,0,0,1,115.37,38a4.55,4.55,0,0,1,1,6.73Z"/><path class="cls-1" d="M164.11,33.44c-.36-2.09-.44-4.07-1.84-5.77s-3.61-1.37-5.57-.63c-3.62,1.38-6.52,4.45-9,7.33-.66.76-1.43,1.75-2.53,1.86s-1.91-.77-2.59-1.49a11.19,11.19,0,0,0-2.23-1.69A5.74,5.74,0,0,0,138,31.78a4.27,4.27,0,0,0-2.93.66,7.62,7.62,0,0,0-1,1,4.85,4.85,0,0,0-.88,1,3.73,3.73,0,0,0-.32,3.17.24.24,0,0,0-.14.1,14.39,14.39,0,0,0,1.79,3.57c.78,1.1,1.66,2.12,2.37,3.26a15.83,15.83,0,0,0,2.59,3.57,5.54,5.54,0,0,0,4.3,1.26c2.91-.34,5.74-2.25,5.71-5.41s-1.41-7,2.08-8.72a3,3,0,0,1,3.77.6c.87,1.2.64,2.94.35,4.31-.65,3.12-2.43,6.13-2.39,9.37,0,1.44.56,3.13,2.15,3.5s3-.71,4-1.86a19.36,19.36,0,0,0,2.41-4.45c.66-1.46,1.35-2.91,2-4.35a13.46,13.46,0,0,1,2.62-4c1.31-1.34,3-2.3,4.27-3.68.92-1,1.47-2.39.13-3.27a3.84,3.84,0,0,0-4.13.18,10,10,0,0,0-1.56,1.5,1.3,1.3,0,0,0,0,.13,1.39,1.39,0,0,0-.44.26,3,3,0,0,0-.46.25Z"/><path class="cls-1" d="M207.88,35.31A7.79,7.79,0,0,0,202.07,30c-2.66-.6-5.5-.27-8.19,0-.34,0-.67.05-1,.09l-.43.07a10.74,10.74,0,0,0-2.37-3.39c-1-1-2.16-2.16-3.65-2.26-1.68-.12-3.27,1-4.52,2.06A26.4,26.4,0,0,0,178.56,30a23.46,23.46,0,0,0-2.81,3.93c-.05,0-.18.21-.23.21-.82,1.55-1.85,2.8-1.73,4.65a12.65,12.65,0,0,0,1.27,5.06c.84,1.56,1.64,3.25,3.25,4.16a16.91,16.91,0,0,0,5.24,2,25.17,25.17,0,0,0,3.11.5c1.06.08,3,.48,3.73.56a20.09,20.09,0,0,0,8.66-2.19,19.61,19.61,0,0,0,7.39-5.43,8.87,8.87,0,0,0,1.44-8m-13.3,9.19c-3-.09-6.28-.72-8.67-2.72-.88-.73-2-2-1.67-3.25s1.84-1.71,2.86-2.12l.6-.18.89-.06a26,26,0,0,1,7.1.46c2.22.47,4.77,1.86,4.61,4.51-.16,2.9-3.42,3.42-5.72,3.36"/><path class="cls-1" d="M220.5,36.43a4.71,4.71,0,0,1-.36-2.19,15.64,15.64,0,0,0-.29-2.22,33.64,33.64,0,0,1,0-4.38,19.46,19.46,0,0,1-.12-2.28c.12-1,.23-1.9.35-2.87.07-.7.33-1.36.47-2.07a42.49,42.49,0,0,1,1.34-4.83,6.89,6.89,0,0,1,1.92-1.29c.82-.29,1.64-.61,2.45-1a10.9,10.9,0,0,0,4.18-3.14c2-2.64.64-5.72-2.45-6.57-7.27-2-10.72,7.11-12.81,12.29a45,45,0,0,0-2.49,9.25,48.57,48.57,0,0,0-.93,9.16c.14,5.6,2.26,12,7.1,15.24a10.57,10.57,0,0,0,8.8,1.43c2.9-.78,4-1.93,7-2.36.75-.1,2.44.2,4-.84.78-.49,1.42-2,2.08-2.65a28.17,28.17,0,0,1,4-3.12c2.84-2.16,5.39-5,5.34-8.78C250,26.93,243,21.91,236.83,22.4c-5.91.48-11,9.24-11.15,9.84a5.11,5.11,0,0,0-.14,1,1.46,1.46,0,0,0,.36,1c1.43.4,2.71-.33,3.94-1.16,1.47-1,2.79-2.23,4.5-2.79a6.27,6.27,0,0,1,8,4.43,4.71,4.71,0,0,1-1.12,4.48c-1.19,1.15-2.87,1.67-4.29,2.46s-2.37,2-4,2.7a6.39,6.39,0,0,1-5.27-.66,24,24,0,0,1-7-7Z"/><path class="cls-1" d="M290.91,32.18c-.05-.63-.12-1.27-.2-1.91-.48-.62-.88-1.34-1.41-1.92a13.89,13.89,0,0,0-1.78-1.58c-.7-.55-1.44-1-2.17-1.47s-1.26-.93-2-1.29-1.53-.61-2.26-1a8.4,8.4,0,0,0-2.62-.9,17.76,17.76,0,0,0-4.6.25c-1.8.18-3.92-.55-5.23,1.09l-.09.59c-2.69-.12-5.45-.2-8,.76a12.69,12.69,0,0,0-6.1,5.24c-2.66,4.13-4.6,10.57-1.4,14.92s10.14,5.41,15.28,5c5.37-.46,10.62-2.73,15.23-5.41a16.56,16.56,0,0,0,5.95-5.16,11.55,11.55,0,0,0,1.34-7.18M280.61,42c-1.6,1-3.7,1.11-5.53,1.14-3.77,0-8.25-.15-11.39-2.5-1.45-1.07-3.14-2.73-3.53-4.57s1.54-2.59,3-3.06h.67c0,.05,0,.09.06.07.33-.19.66-.38,1-.58,1.48-.95,2.71-2.29,4.24-3.12a5.59,5.59,0,0,1,5.32.22,31,31,0,0,1,4.82,2.88,7.57,7.57,0,0,1,3.08,4.62,4.59,4.59,0,0,1-1.72,4.9"/></g></g></svg>