<svg id="icon_phone" xmlns="http://www.w3.org/2000/svg" width="18.59" height="19.128" viewBox="0 0 18.59 19.128">
  <path id="パス_43" data-name="パス 43" d="M588.054,2338.466a4.869,4.869,0,0,1,.492,2.142.731.731,0,0,0,.73.731h0a.731.731,0,0,0,.731-.73,6.388,6.388,0,0,0-3-5.413,6.4,6.4,0,0,0-3.3-.968.731.731,0,0,0-.019,1.462A4.895,4.895,0,0,1,588.054,2338.466Z" transform="translate(-574.671 -2330.976)" fill="#fff"/>
  <path id="パス_44" data-name="パス 44" d="M592.3,2272.92a9.631,9.631,0,0,0-8.593-5.437H583.7a.731.731,0,0,0-.006,1.462,8.177,8.177,0,0,1,8.108,8.17.731.731,0,0,0,.73.731h0a.731.731,0,0,0,.731-.73A9.541,9.541,0,0,0,592.3,2272.92Z" transform="translate(-574.671 -2267.484)" fill="#fff"/>
  <path id="パス_45" data-name="パス 45" d="M427.894,2286.449a1.373,1.373,0,0,0-1.781-.2l-1.552,1c-.313-.131-1.367-.719-3.729-3.25-2.376-2.547-2.88-3.629-2.985-3.943l1.1-1.481a1.381,1.381,0,0,0-.072-1.791l-2.421-2.595a1.427,1.427,0,0,0-2.15.073l-.675.83a3.9,3.9,0,0,0-.9,2.63,7.933,7.933,0,0,0,.739,3.046,23,23,0,0,0,4.262,6.123,26.562,26.562,0,0,0,4.457,3.877,8.909,8.909,0,0,0,4.724,1.792,3.669,3.669,0,0,0,2.31-.765l.87-.613a1.427,1.427,0,0,0,.222-2.14Z" transform="translate(-412.731 -2273.433)" fill="#fff"/>
</svg>
