<svg id="icon_mail" xmlns="http://www.w3.org/2000/svg" width="19.975" height="13.542" viewBox="0 0 19.975 13.542">
  <path id="パス_46" data-name="パス 46" d="M1338.558,1469.874a.731.731,0,0,1-.743,0l-9.3-5.494a.207.207,0,0,0-.312.178v8.344a1.57,1.57,0,0,0,1.57,1.57H1346.6a1.571,1.571,0,0,0,1.571-1.57v-8.344a.207.207,0,0,0-.312-.178Z" transform="translate(-1328.199 -1460.931)" fill="#fff"/>
  <path id="パス_47" data-name="パス 47" d="M1338.7,1401.384l9.468-5.591a.206.206,0,0,0,.1-.193,1.573,1.573,0,0,0-1.565-1.438h-16.835a1.572,1.572,0,0,0-1.565,1.438.205.205,0,0,0,.1.193l9.468,5.591A.812.812,0,0,0,1338.7,1401.384Z" transform="translate(-1328.295 -1394.163)" fill="#fff"/>
</svg>
