<svg id="icon_map" xmlns="http://www.w3.org/2000/svg" width="12.143" height="17" viewBox="0 0 12.143 17">
  <path id="パス_6" data-name="パス 6" d="M857.252,1642.562a6.078,6.078,0,0,0-6.071,6.072c0,3.23,5.515,10.464,5.75,10.77a.405.405,0,0,0,.643,0c.235-.306,5.75-7.54,5.75-10.77A6.078,6.078,0,0,0,857.252,1642.562Zm0,15.92c-1.188-1.609-5.262-7.31-5.262-9.848a5.262,5.262,0,1,1,10.524,0C862.514,1651.172,858.441,1656.873,857.252,1658.482Z" transform="translate(-851.181 -1642.562)"/>
  <path id="パス_7" data-name="パス 7" d="M945.807,1734.355a2.833,2.833,0,1,0,2.833,2.833A2.837,2.837,0,0,0,945.807,1734.355Zm0,4.857a2.024,2.024,0,1,1,2.024-2.024A2.026,2.026,0,0,1,945.807,1739.212Z" transform="translate(-939.736 -1731.117)"/>
</svg>
